<svg id="Layer_1" enable-background="new 0 0 152 152" height="512" viewBox="0 0 152 152" width="512" xmlns="http://www.w3.org/2000/svg"><path id="Icon" d="m72.5 33.2c-6.2.4-14.5-11.4-28.4-5.8-13.3 5.3-14.4 15.4-28.9 62.7-3.4 11.1-7.2 19.4-.5 27.9 5.7 7 15.7 9 23.7 4.7 7.2-3.6 12.8-26.9 28.4-64.8 2.4-4.9 11.9-4.3 10.5 5.3 0 3.2-14.7 38.3-14.7 40-1.8 12.4 14.5 13.6 19.5 2.1.5-.5 2.6-5.3 6.8-13.7 20.7-41.4 12.9-25.3 18.9-37.4 2.1-2.6 4.2-4.3 5.8-4.3 2.6 0 4.2 2.1 3.7 5.8 0 4.2-15.6 32-20 45.3-2.2 11.1 3.6 21 13.1 26.3 3 2 21.1 5.3 26.8 1 6-2 4.3-10.6-.5-11.6-5.2-2.6-7.8-.4-14.7-3.2-15.2-6.1 18.8-56.3 16.8-72.2-1.6-10-6.8-14.8-17.4-15.3-6.3 0-6.9 2.8-10 2.5s-9.4-7.5-18.4-7.4c-9 .4-15.6 11.8-20.5 12.1z"/></svg>