<svg width="489" height="483" viewBox="0 0 489 483" fill="none" xmlns="http://www.w3.org/2000/svg">
<path d="M121.44 50.6079C139.376 40.9457 157.865 32.7333 176.961 25.6908C181.402 24.05 185.787 22.3281 190.167 20.5311C249.349 -3.27704 249.349 -3.27701 272.433 5.0058C289.618 12.703 298.232 23.8074 308.809 38.902C309.127 39.356 309.483 39.7891 309.879 40.1764C319.596 49.6656 332.689 52.8111 345.531 56.1844C380.023 65.4134 380.023 65.4135 388.409 78.6383C390.996 83.7204 392.584 88.2442 391.006 93.835C390.877 94.2918 390.686 94.7484 390.477 95.1746C382.006 112.448 383.781 107.763 368.097 122.857C367.421 123.508 366.813 124.27 366.394 125.111C358.049 141.872 377.897 152.123 397.98 145.138C420.763 138.232 451.55 137.591 472.7 148.913C480.566 153.859 484.251 160.079 486.888 168.778C490.02 183.644 487.427 197.203 480.127 210.441C475.081 218.08 469.335 225.116 463.585 232.23C448.354 250.208 447.858 250.794 443.76 271.58C443.478 273.009 443.497 274.489 443.871 275.896C444.331 277.626 444.619 278.223 445.794 280.659C447.469 284.477 449.276 288.212 451.215 291.903C456.569 302.137 457.898 309.719 454.866 321.086C440.444 359.137 400.911 385.426 368.894 407.69C354.065 418.027 339.664 428.788 325.471 439.991C284.087 472.628 231.841 448.413 175.901 473.913C145.401 484.913 117.094 488.044 97.9348 463.938C93.6343 457.821 90.4294 451.677 87.67 444.734C76.7852 419.867 80.1003 391.648 81.0453 365.251C80.9211 360.919 79.3404 359.404 76.5223 356.144C55.9369 327.672 13.4707 321.172 3.10484 287.101C2.9673 286.649 2.80112 286.198 2.61762 285.763C-6.95784 263.041 11.2173 228.405 33.1375 222.852C46.2915 219.375 55.9992 213.91 63.4338 202.155C67.2079 195.119 69.5739 190.166 67.6717 182.052C65.4392 175.897 59.9713 174.639 54.1918 172.705C45.4763 169.672 38.4774 167.067 33.0602 159.825C32.3373 158.859 31.8585 157.72 31.6415 156.533C23.4581 111.779 89.1386 69.3427 121.44 50.6079Z" fill="#E4E9F3" fill-opacity="0.8"/>
</svg>
